<?xml version="1.0" standalone="no"?>
<!DOCTYPE svg PUBLIC "-//W3C//DTD SVG 20010904//EN"
 "http://www.w3.org/TR/2001/REC-SVG-20010904/DTD/svg10.dtd">
<svg version="1.0" xmlns="http://www.w3.org/2000/svg"
 width="802.000000pt" height="802.000000pt" viewBox="0 0 802.000000 802.000000"
 preserveAspectRatio="xMidYMid meet">
<metadata>
Created by potrace 1.11, written by Peter Selinger 2001-2013
</metadata>
<g transform="translate(0.000000,802.000000) scale(0.100000,-0.100000)"
fill="#000000" stroke="none">
<path d="M34 7133 c-7 -2 0 -16 15 -32 14 -16 61 -98 104 -182 44 -85 91 -176
106 -204 14 -27 66 -126 115 -220 49 -93 103 -197 121 -230 18 -33 67 -127
110 -210 43 -82 85 -163 95 -180 10 -16 50 -93 90 -170 40 -77 89 -171 110
-210 21 -38 68 -128 105 -200 37 -71 89 -170 115 -220 26 -49 73 -139 105
-200 31 -60 76 -146 100 -190 43 -81 120 -228 228 -435 32 -63 74 -142 92
-175 18 -33 63 -118 100 -190 37 -71 89 -172 116 -222 27 -51 72 -137 100
-190 28 -54 73 -138 99 -188 59 -113 140 -267 215 -410 32 -60 76 -146 100
-190 67 -127 147 -280 220 -420 37 -71 80 -152 95 -180 15 -27 67 -126 115
-220 48 -93 91 -174 95 -180 8 -10 186 -353 204 -392 6 -13 15 -23 19 -23 5 0
183 88 395 196 213 108 547 278 742 377 195 99 450 228 567 288 l211 108 88
-97 c48 -53 95 -104 104 -113 8 -9 30 -34 49 -55 19 -21 57 -64 85 -94 28 -30
87 -95 131 -144 44 -49 89 -99 101 -110 11 -12 81 -88 155 -170 74 -82 147
-163 162 -180 41 -45 170 -187 182 -200 56 -61 73 -88 79 -127 4 -24 10 -50
15 -57 4 -7 8 413 8 933 l0 946 55 57 c30 31 95 100 144 152 188 198 263 277
336 355 42 44 98 103 124 131 27 28 105 111 174 184 69 73 147 156 174 184 26
28 93 98 147 156 54 58 131 139 171 181 40 42 129 136 198 209 69 73 164 174
212 224 47 50 86 92 85 93 -2 1 -489 151 -762 233 -88 27 -250 76 -360 110
-110 34 -207 63 -215 65 -15 4 -87 26 -290 88 -63 20 -167 51 -230 71 -63 19
-198 60 -300 91 -102 31 -192 58 -200 60 -8 2 -141 43 -295 90 -154 47 -323
99 -375 115 -540 165 -730 224 -760 232 -19 5 -93 28 -165 50 -191 59 -256 79
-290 88 -16 5 -46 13 -65 20 -19 6 -42 13 -50 15 -24 6 -1031 313 -1165 355
-33 11 -136 42 -230 71 -148 44 -904 274 -1235 375 -63 20 -122 37 -130 39 -8
2 -73 22 -145 45 -71 23 -140 43 -152 46 -12 2 -35 9 -50 15 -16 6 -35 12 -43
14 -42 9 -445 137 -454 144 -6 5 -16 6 -22 4z"/>
</g>
</svg>
